<?xml version="1.0" encoding="UTF-8"?>
<svg version="1.1" viewBox="0 0 2048 1537" width="1280" height="1280" xmlns="http://www.w3.org/2000/svg">
<path transform="translate(0)" d="m0 0h2048v1537h-2048z" fill="#FDFDFD"/>
<path transform="translate(367,604)" d="m0 0h155l4 1 3 7v85l-3 5-3 2-13 1h-12l-8-1 7 18 4 17 1 8v16l-3 21-5 16-7 16-8 12-9 10-5 5-9 8-13 8-17 8-21 6-21 3-20 1-50 1-8 4-4 5-2 5 1 9 4 6 8 3 109 1 23 1 14 2 16 5 16 8 9 7 10 9 9 14 5 10 4 12 1 6v16l-4 20-6 18-8 18-7 12-4 1h-89l-5-3-2-5-1-31-4-8-7-4-5-1h-114l-17-3-19-7-13-8-11-10-8-11-7-15-5-21v-19l3-17 6-15 10-16 9-10 12-9 9-6h2l-1-3-11-7-13-12-10-11-11-18-6-16-4-18-1-9v-24l2-17 4-17 6-16 7-13 8-11 11-12 9-8 18-12 16-8 15-6 21-6 14-2z" fill="#DD0944"/>
<path transform="translate(812,604)" d="m0 0h22l20 3 20 6 16 8 14 9 11 9 13 13 10 14 8 14 6 14 5 18 2 13 1 16v31l-1 99-4 5-2 1h-61l-5-3-2-3v-8l-18 7-21 5-16 2h-12l-19-2-19-5-15-6-15-8-16-12-16-16-10-14-8-14-8-21-4-19-1-8v-24l3-18 8-24 9-17 10-14 9-10 10-10 14-10 19-10 13-5 21-5z" fill="#DD0944"/>
<path transform="translate(1709,612)" d="m0 0h31l20 4 15 5 16 8 14 9 10 8 6 5 7 8 10 13 10 17 7 18 5 23 1 9v19l-2 12-5 6h-184l5 9 8 9 10 7 11 5 13 3h14l14-3 14-7 7-5h77l5 5v7l-8 15-12 16-16 16-14 10-14 8-21 8-18 4-25 2-20-2-20-5-18-8-14-8-14-11-14-14-11-15-9-16-6-16-5-20-1-8v-27l3-18 5-16 7-16 7-12 9-12 11-12 10-9 15-10 16-8 18-6z" fill="#DD0944"/>
<path transform="translate(1121,604)" d="m0 0h18l22 3 20 6 16 8 12 7 16 13 8 8 13 17 7 12 8 20 4 16 2 19v137l-5 6-3 1h-74l-5-3-2-4-1-137-4-13-6-10-9-8-12-6-9-2h-13l-13 4-11 7-8 10-4 8-3 9-1 6-1 134-6 5h-76l-5-3-1-1-1-9v-130l2-17 5-19 7-18 10-17 9-11 2-3h2l2-4 7-7 17-13 19-10 24-8z" fill="#DD0944"/>
<path transform="translate(1419,611)" d="m0 0h21l15 2 19 5 16 7 16 9 9 7 10 9 10 10 10 14 8 14 8 21 1 10-4 5-2 1h-85l-6-8-7-7-13-7-9-2h-12l-12 3-11 6-9 9-7 14-2 9v12l4 13 6 10 8 8 13 7 9 2h13l11-3 11-6 4-2v-2h2l2-4 6-8h85l5 5 1 4-5 17-10 21-10 15-11 12-10 10-16 11-19 10-15 5-19 4-10 1h-17l-21-3-20-6-19-9-13-9-11-9-11-11-9-12-8-13-7-15-6-20-3-20v-19l3-20 5-17 8-18 10-16 12-14 9-9 13-10 16-9 14-6 16-5z" fill="#DD0944"/>
<path transform="translate(568,468)" d="m0 0h78l6 4v399l-5 5-40 1h-28l-11-1-4-4-1-3v-380l1-17z" fill="#DD0944"/>
<path transform="translate(339,679)" d="m0 0h23l14 4 14 9 10 10 7 11 4 11 2 13-1 15-4 13-7 12-11 12-13 8-12 4-5 1h-19l-14-4-11-6-12-10-7-10-6-13-2-8v-21l5-16 6-10 9-10 11-8 11-5z" fill="#FDFDFD"/>
<path transform="translate(820,678)" d="m0 0 14 1 12 3 11 6 9 7 8 9 6 10 4 12 1 6v17l-4 15-6 11-9 11-11 8-11 5-11 3h-19l-12-3-14-7-12-11-9-14-5-15-1-14 2-14 5-13 8-11 9-9 11-7 15-5z" fill="#FDFDFD"/>
<path transform="translate(1719,679)" d="m0 0h11l15 3 14 7 12 11 7 9 1 4h-109l2-6 9-10 9-8 14-7z" fill="#FDFDFD"/>
<path transform="translate(1598,788)" d="m0 0 3 1 1 5h3l2 5-1 4 5 2-3 1 3 1 3 7 2 3h2v2l2 1-1 2h2v2l3 1 2 6 9 11 6 7 4 1v2h3v2l4 1 8 5 3 1v2l6 2 1 3 9 1v2l11 2 11 3h15l2 1h8l2-1h15l15-4 6-3 17-7 5-3 11-2-4 4-4 2-3 4h-4l-1 5-15 6-15 4-15 2-16 1-20-2-20-5-18-8-14-8-14-11-14-14-11-15-9-16-5-12 1-4z" fill="#F00753"/>
<path transform="translate(1166,697)" d="m0 0h2v3h2v3l4 2 2 2-1 2h2l1 3 2 2 4 9 2 10v5l-4 5v-2h-2v127l7-1 6 4-1 4h48l10-1 5-2v-2l3-1v-2h4l2-4 2 1-1-11-1-41-1-84 1-5-1-5 2-4 2 19v137l-5 6-3 1h-74l-5-3-2-4-1-137-3-13h2l-1-5-7-6-3-6h2v2h2l-1-3-4-2v-2z" fill="#F00753"/>
<path transform="translate(698,784)" d="m0 0h4l3 2 4 9v3h2l1 8 1 3h2l1 4h4l6 10 3 2 1 5h4v3h2l2 7 4 1 4 4 8 5v2l6 2h2l1 1 1 2 6 1 14 5 10 4h12l6 2h9l3-1 5 1 8-1 5 1-4 2-1 2h-2v2h5v1l-10 1h-12l-19-2-19-5-15-6-15-8-4-4 5 2 4 2-1-1-10-8-7-4-2-4-4-2-10-10-3-4v-2h-2l-5-7v-2h-2l1-6h-2l-1 2-1-5h-2l-5-12z" fill="#F00753"/>
<path transform="translate(206,966)" d="m0 0 3 3 5 10 3 3 1 5h2l1 1 2-2 2 2v3l5 4 11 6v2l5 1 9 3 5 2 17 2 22 1h3v2h10l3-1 4-1 5 1 8-1h16l4 2 5-2 6 1 6 2 1-2 4 2h11l10 3-3 1-5-1h-114l-17-3-19-7-12-7 1-2-2-4-4-2-8-10-5-5-5-10 2-1 2 1z" fill="#F00753"/>
<path transform="translate(1505,853)" d="m0 0v3l-2 4h-7l-4 4-4 1v6l-14 6-21 5-15 2h-17l-21-3-20-6-5-2 2-2-4-3-6-3v-3h2v2l5 1 8 4 4 1 6 2 14 3h10l7 1 6-1h19l12-3 8-3 9-3 20-10 6-2z" fill="#F00753"/>
<path transform="translate(1687,619)" d="m0 0 1 2-7 1 3 3-3 2h-2l-1 2-2-1v3h-2v-2l-5 1v2l2 1-6 1v2l-8 3-2 2-4 2h-3v2l-3 1-2 4-6 2-4 5-7 7-1 5h-3l-2 7-5 6-3 7h-2v5l-3 6h-2l-2 10-2 2-1 9h-2l1 7-1 3h-4l-2-5h3l-1-4h2l-1-5 1-3h2v-11l4-1v-5l-1-2h3l-1-5 3-4h3v-5h-3l2-5 10-14 12-13 10-9 13-9 2 1v1l4-1h4v-3l1-2 10-4z" fill="#EF0752"/>
<path transform="translate(1373,626)" d="m0 0 6 4-3 1v3l-7-1-1 3h-6v-3l-2 4-2 3h-5l-1 1-5 2-3 1v3l-6 4-6 5-2 4h-2v3l-2 2 8-3-2 5h-3l-1 5-4 4h-3l-1 7-4 7-2 6h-2l-1 9-3 5-2 4-1 10-1 5-2 13-2 6-2-2v-2l-2 2v-12l3-6-1-5 1-4h2l3-12 2-5v-4h2l-1-5 3-6 3-7-1-2 8-12 11-13 9-9 13-10 8-5 5 1z" fill="#F00753"/>
<path transform="translate(568,468)" d="m0 0h78v1l-9 1 4 1 1 4-11 3h-4l-27 1-2 1v-2l-7 1h-12l-7 4v-2h-2l-2-5v-5l2-1z" fill="#F10754"/>
<path transform="translate(250,628)" d="m0 0 2 1-2 2 2 2-8 4-1 3-1 1 2 2h-3v2l-3 2-2 3h-3v2l-9 9h-2l1 4h-2v2h-2v3h-2v4h-2l-2 4-3 5-2 6-3 7-2 3v3h-2v8l-2 1v3l-2 10-2 1-1-9-1-2h2v-5l3-5 1-8-1-4 4-4-1-2h3l-2-4 2-4v-5l10-14 11-12 9-8z" fill="#F00753"/>
<path transform="translate(563,513)" d="m0 0h1l1 305 1 46 5-1 1 3 5 2 6 2 1 4 14 1h49v1l-40 1h-28l-11-1-4-4-1-3z" fill="#F00753"/>
<path transform="translate(772,614)" d="m0 0 2 1-1 3 2 1-2 1-1 2-3-2-6 3v4 2l-4-1 1 3-6 3-4-1h-2l-5 2-1 3 1 5h-8l2 2-4 2 2 1-2 2h-4v2l-5 5v2l-4 1h-3l3 3-2 6-2 1v3l-2 4-3 7h-3l1 4-3 5h-2v2l-3-1 1-4 4-9-1-2 4-3 4-7h-2l1-5 3-7 12-13 9-9 14-10 19-10z" fill="#EF0752"/>
<path transform="translate(1740,613)" d="m0 0 12 1 20 6 14 6 15 9 13 10 7 6 3 5-4 1-5-2-1-3h-2v-2l-8-2-5-5-3-1v-2h-2l-1-2-6-2v-2l-9-3v-2h-5l-5-3-2 1-1-2-5-2-7-1-6-3-3 1v-2l-4-1-6-1v-1z" fill="#EF0753"/>
<path transform="translate(957,717)" d="m0 0h1l2 24v31l-1 99-4 5-2 1h-61l-5-3-2-3v-8l-3-1h4v4l6-1 2 1v2l7 1 3 5 1 1h35l4-4 4-1 1-3h4l2-1 2-6z" fill="#F00753"/>
<path transform="translate(1455,614)" d="m0 0 9 1 18 6 21 11 11 8 11 10v3 2h2l2 4-4 1-5-5-3-1-1-5h-3l-5-5-4-1v-2l-5-1v-2l-3-1-3-3-4-1v-2l-5-1-4-1-1-2-10-1-1-2h-3-3l-8-1-1-3v-2l-1-3z" fill="#EF0752"/>
<path transform="translate(1041,647)" d="m0 0 2 1-1 2h-2v3h-2l-1 5h-3l-1 2-2 1v2l-5 1-1 5-4 5-4 14-1 3h-2l-1 5-3 6-1 4-1 6h-2l-2 17-1 2h-2l1 4h-2l-1-7 1-2-2-1 1-6 2-1 2-6 1-5 1-6h2v-7l-2-1h2l1-5 3-3-1-2h2l-1-7 5-10 10-13 3-4 3 1-1 3h3v-2l7-2z" fill="#F00753"/>
<path transform="translate(1443,696)" d="m0 0 7 2 3 3 8 4 5 4 6 4 3-1 2 3 7 2 4 3h4l4 3h26l19-1 3-2h7l1-3 3-1v3l2 1 1 4-2 1h-85l-6-8-7-7-13-7-9-2-12-1v-1l18-2z" fill="#F00753"/>
<path transform="translate(367,604)" d="m0 0h155v1l-143 1-44 1 35 1h7l1 3-2 1h-19l-5 1h-27l-5 2h-9l-2-1v-2l3-3 7-1-1-3z" fill="#F10754"/>
<path transform="translate(1121,604)" d="m0 0h18l10 1v1l-6 1 5 1 1 4-4 2-11 1-4-1h-13l-3 1-12 1-7 2-7-1-2 2-1-4h2v-2l7-1-1-3 18-4z" fill="#EF0753"/>
<path transform="translate(821,675)" d="m0 0h16l6 1v2h10l1 3h2v2l4-1 9 4 1 6h6l3 4v2h2l4 11 2 6h-6l-1 2-5-10-8-10-7-6-14-8-12-3-14-1h-9v-1h8v-2z" fill="#EF0753"/>
<path transform="translate(404,1031)" d="m0 0h1l1 10v18h5v3l3-1 2 1v2h9v3h29l4-1 14-1 3 1h10l2 1v-2l8-1 3 1v2l2 1v2h-89l-5-3-2-5z" fill="#F10754"/>
<path transform="translate(1307,787)" d="m0 0h2l1 4 4 8 1 4 4 10v3h3l3 3v3l2 1 3 5 4 4v2h2l1 5 2 1v2l5 2 8 6v2l6 3v2h2l1 2 6 2-1 3-4-2-7-4-10-7v-2h-2v-2l-3-1v-2l-4-2-5-4-9-11-1-4h-2v-2h-2l-3-5v-5h-2v-3l-3-1-4-8-2-7 2-4z" fill="#F00753"/>
<path transform="translate(457,843)" d="m0 0 1 3 2 2-15 10-19 9-17 5-4-1 1-1-6-1v2l-3-1 2-4h3v2l3-2 7-2 6-3h5v-2l5-2 11-5 7-2 2 1-1-4h4l1-2 3 1v-2z" fill="#EF0752"/>
<path transform="translate(454,914)" d="m0 0 9 1 17 6 14 8 13 11 4 5-2 2-3 1v-2l-5-2-1-3-4-1-7-4v-2l-4-2-3-1v-2h-5v-2l-5-1v-2h-7v-2l-5-1v-2h-4v-2l-2-1z" fill="#EE0752"/>
<path transform="translate(345,672)" d="m0 0h9l2 2 7 1 4-1 18 6 2 4 7 2 1 5 5 2 7 7v2h2l6 11v2l-4 1-1-4h-2l-1-5-3-1-4-8-7-7-9-5 2 3-5-2-8-4-11-3-23-1v-1l5-1z" fill="#F00753"/>
<path transform="translate(1170,612)" d="m0 0 11 1 16 8 12 7 16 13 1 4v2l-3 1-20-15-4-2v-2l-5-1v-2h-3v-2l-5-1-7-2-4-2-5-5z" fill="#F00753"/>
<path transform="translate(1264,714)" d="m0 0h1l2 19v130h-1l-1-10-1-41-1-84 1-5-1-5z" fill="#F10754"/>
<path transform="translate(1302,795)" d="m0 0 3 1 4 9 3 3v3h2l2 6 1 4h2v2h2l6 9 5 6 8 6 3 3v2h2v2l5 2 9 7 7 4 1-2v3l6 2 5 5-7-1-13-7-14-10-12-11-11-12-11-17-8-17z" fill="#E20948"/>
<path transform="translate(244,844)" d="m0 0 5 2v2l-3 3h2l-1 5-1 3h-2v2h-3v2h-2v2l-5 1v2h-9l-6 5-6 7-2-2 9-11 10-8 12-8h2l-1-3-2-2z" fill="#EE0751"/>
<path transform="translate(1472,769)" d="m0 0h85l5 5 1 4-5 17-2 2 2-9 3-9-3-1 1-4-1-3-80-1v2l5-1v3h-3l-1 3-2-1v2l-4 2v2h-8v2l-6 3-2-1 3-3h2v-2h2l2-4z" fill="#F00753"/>
<path transform="translate(859,609)" d="m0 0 9 2 17 7 7 4v2l3 3-2 5-2-1v-2l-5-2-7-3v-2l-7-1v-2h-4v-2l-4-1 1-1h-3v1l-7-1-1-3 1-2z" fill="#EF0752"/>
<path transform="translate(1313,679)" d="m0 0 1 2-3 5 2 2h-3l-2 5v5l-1 4-5 15-1 2h-2v8 3l-4 9-1 18h-1v-19l3-20 5-17 8-18z" fill="#E00946"/>
<path transform="translate(812,604)" d="m0 0h22l-2 2h-3v2h7l4 1v2l-3 1-6-1-10 1h-5l-1 1-7 1h-4l-7 1-3 1v-2l-3 1-2-1 1-3h4l1-1 4-1 1-1 23-1v-2h-11z" fill="#F00753"/>
<path transform="translate(698,793)" d="m0 0 3 1 3 9h2l2 3h2l1 5v1l4 6 1 3h2l4 6v2l4 2 7 7h3v3l2 1 3 3 7 4 8 6-1 2-7-4-5-2-10-8-15-15-10-14-8-14z" fill="#E20948"/>
<path transform="translate(1373,626)" d="m0 0 6 4-3 1v3l-7-1-1 3h-6v-3l-2 4-2 3h-5l-1 1-5 2-3 1v3l-6 4-6 5h-2l2-4 8-8 13-10 8-5 5 1z" fill="#ED0750"/>
<path transform="translate(722,652)" d="m0 0 5 1-3 5-4 2h-3l3 3-2 6-2 1v3l-2 4-3 7h-3l1 4-3 5h-2v2l-3-1 1-4 4-9-1-2 4-3 4-7h-2l1-5 3-7 5-3z" fill="#F00753"/>
<path transform="translate(1166,697)" d="m0 0h2v3h2v3l4 2 2 2-1 2h2l1 3 2 2 4 9v8 4l-1 2-4 1-1-9-2-6-2-1v-2h2l-1-5-7-6-3-6h2v2h2l-1-3-4-2v-2z" fill="#EF0752"/>
<path transform="translate(202,791)" d="m0 0 1 4h2l2 6 6 8 5 9 4 3 4 2 3 3v2l3 1-2 1-1 3 2 1h-3l-9-10-5-4v-2l-3-1-4-6v-3l-3-1-3-6v-8z" fill="#F00753"/>
<path transform="translate(200,802)" d="m0 0 3 1 2 4 2 1 3 6 7 8 8 7 4 4v-3l5 1 4 5h-3l3 1 3 9-5-2-13-11-10-10-10-14-3-5z" fill="#E30949"/>
<path transform="translate(1011,676)" d="m0 0 1 3-1 5 1 2-4 3-1 5v7l-3 7-1 7-4 7-3 1 1-11 6-20 6-13z" fill="#DF0946"/>
<path transform="translate(1607,680)" d="m0 0 3 1-1 5-4 2-1 7h-3l2 1-1 6-4 1 1 6-1 5h-2v8h-2l1 4-5 1 1-10 5-16 7-16 2-4z" fill="#E10947"/>
<path transform="translate(204,892)" d="m0 0 4 1 1 3-2 5v2l-3 1 1 4-1 1 1 4h-2l1 5-1 3-6-2 2-6-2-1-2 12h-1v-8l4-15 3-7z" fill="#E6084B"/>
<path transform="translate(1604,810)" d="m0 0 3 3 6 8 2 1 2 4v4h2l1 4 4 2 10 8 2 4 4 3v2h3v2h2v2l4 2-4 1-13-11-12-12-11-15-5-8z" fill="#E40849"/>
<path transform="translate(896,629)" d="m0 0 3 2h3l6 3 6 4 12 12-1 3h-5l-10-10v-2l-4-1-4-3-3-1-3-4z" fill="#EF0753"/>
<path transform="translate(414,760)" d="m0 0h2l-3 15-5 5-2 3h-2v2h-3v-2h2l1-7-8 12h3v2l-5-1h-3l2-4 8-9 4-7 1 2h4l-1-5 2-1 1-4z" fill="#F00753"/>
<path transform="translate(803,605)" d="m0 0h20v2l-6 1-17 1-3 2-2-1 1 3h-2v-2l-7 2-3 4v2h-8l3-3v-3l-2 2-1 2-2-1v-3l15-5z" fill="#DF0945"/>
<path transform="translate(526,607)" d="m0 0 2 2 1 3v85l-2 4-1-4-1-3h2v-40l-1-33h2l-2-2-1-11z" fill="#F00753"/>
<path transform="translate(1731,676)" d="m0 0h7l11 3 9 3 2 5-1 2-5-2-12-5-12-2h-11l-11 1 3-2 7-1 12-1z" fill="#EF0753"/>
<path transform="translate(1263,863)" d="m0 0h4v7l-5 6-3 1h-19l1-2 9-1 5-2v-2l3-1v-2h4z" fill="#EE0751"/>
<path transform="translate(1473,770)" d="m0 0h5v2l5-1v3h-3l-1 3-2-1v2l-4 2v2h-8v2l-6 3-2-1 3-3h2v-2h2l2-4 4-5z" fill="#EF0752"/>
<path transform="translate(493,607)" d="m0 0 8 1 4-1 6 2v4l-14 1-4-1-14-1v-2l7-1 5-1z" fill="#F00753"/>
<path transform="translate(1113,689)" d="m0 0h3l-1 5 1 2-12 6-6 4-2-1v-5l2-1v-3l6-1 1-2 2 1 1-2h3 2z" fill="#EF0752"/>
<path transform="translate(319,872)" d="m0 0h5l2 2 18 1h40v1l-20 1h-50l2-1v-3z" fill="#F00753"/>
<path transform="translate(1701,806)" d="m0 0 10 2 6 1h21v1l-6 1h-12l2 5h-10l-2-3-1 2h-2l-1-3-5-3z" fill="#F10754"/>
<path transform="translate(889,720)" d="m0 0 3 4 1 11v16l-2 6v4h-2l-1 3-2-3 1-4-1-3 2-1 1-9-1-2 1-8 1-5z" fill="#F10754"/>
<path transform="translate(1764,795)" d="m0 0 2 1-1 2 5-2 1 2 5 1 2 2-9 2-5 1v2l-5 3-2-4 1-1-4-2z" fill="#EE0752"/>
<path transform="translate(200,967)" d="m0 0 3 1 6 12 6 5 5 6v2l5 2 2 5-4-1-10-9-8-11-5-10z" fill="#E20948"/>
<path transform="translate(1766,690)" d="m0 0 5 2 1 2 4 2 3 2v2l4 2 1 4h-3l-5-3-4-1-9-9z" fill="#F00753"/>
<path transform="translate(882,766)" d="m0 0 5 1-2 9-1 3-5 2-1 3-2-4 1-3-1-5 3-4z" fill="#EF0753"/>
<path transform="translate(382,685)" d="m0 0 4 1 9 6 7 7 3 7 3 3-1 4-3-3-7-10-8-8-7-6z" fill="#E10947"/>
<path transform="translate(1685,617)" d="m0 0 4 1-2 2-13 4-6 3h-4l-1 3 2 2h-2l-1 2h-3v-2l-6 3 2-5 16-8z" fill="#E40849"/>
<path transform="translate(1419,611)" d="m0 0h21l4 3 6 1-2 1-1 2-6-2v3l-2-4-1 2-4 1-7-1-1-1h-3l-1-2 5-1-8-1z" fill="#F00753"/>
<path transform="translate(870,860)" d="m0 0 2 1v2l-17 6v2l1 2-9 1 3-2-4-5 13-3 5-2z" fill="#F00753"/>
<path transform="translate(995,864)" d="m0 0h1l1 5 7-1v2l5 1v4l-11 1-3-3z" fill="#F10754"/>
<path transform="translate(1414,696)" d="m0 0 3 1v2h-2v4l-9 4-5-1 2-1v-2h2l1-4 6-2z" fill="#E6084B"/>
<path transform="translate(1373,626)" d="m0 0 6 4-3 1v3l-7-1-1 3h-6v-5l7-3z" fill="#EF0752"/>
<path transform="translate(1142,690)" d="m0 0 6 1h2v2l5 1v3l-5 1-8-3-17-2v-1l13-1z" fill="#F00753"/>
<path transform="translate(712,662)" d="m0 0 2 1-3 6h2l-5 10h-3l-1 2-3 1 2-6 8-13z" fill="#E20948"/>
<path transform="translate(1740,613)" d="m0 0 12 1 5 2v1l-5 1v2l-5-1-3 1v-2l-4-1-6-1v-1z" fill="#EC0750"/>
<path transform="translate(418,726)" d="m0 0 2 1v24l-3 4-2-1v-10l2-2z" fill="#F10754"/>
<path transform="translate(228,644)" d="m0 0 2 1-5 5 1 2-4 8h-2v2l-4 1v-6l7-8z" fill="#E6084B"/>
<path transform="translate(1604,810)" d="m0 0 3 3 6 8 2 1 2 4v4h2l1 5-5-5-8-11-3-5z" fill="#E30948"/>
<path transform="translate(1297,722)" d="m0 0 2 1 1 6-3 5-2 5-1 18h-1v-19l2-15z" fill="#E6084B"/>
<path transform="translate(786,609)" d="m0 0h3l-2 4-3 4v2h-8l3-3v-3l-2 2-1 2-2-1v-3z" fill="#E7084C"/>
<path transform="translate(1057,625)" d="m0 0h2v2l2 1-5 1v2l-5 2-8 7-5 3-2-1 10-9z" fill="#EE0751"/>
<path transform="translate(1404,788)" d="m0 0 6 2 4 3v2l4 5-7-1v-2l-5-1-3-3h3z" fill="#F00753"/>
<path transform="translate(379,609)" d="m0 0h23v2h6v1h-30z" fill="#F00753"/>
<path transform="translate(776,783)" d="m0 0 6 4 8 5-3 1v2h2v2l-7-2v-3l-2 1v-4h-3v-2h-2z" fill="#F00753"/>
<path transform="translate(696,708)" d="m0 0h3v6l-2 5 1 3-1 8-3-1-1-5-1-3 2-6 2-1z" fill="#F10754"/>
<path transform="translate(734,641)" d="m0 0 2 1-1 1 2 2-4 2 2 1-2 2h-4v2h-6l2-4 4-4z" fill="#F00753"/>
<path transform="translate(265,620)" d="m0 0 4 2-2 2v3l-2 4-7 1v-2l1-1-2-1 3-4 1-2z" fill="#ED0751"/>
<path transform="translate(772,614)" d="m0 0 2 1-1 3 2 1-2 1-1 2-3-2-4 2-7 1 1-3z" fill="#E7084C"/>
<path transform="translate(188,722)" d="m0 0h1l1 12-1 7v25h-1l-1-9v-24z" fill="#F10754"/>
<path transform="translate(199,705)" d="m0 0 2 4-2 2v3l-2 10-2 1-1-9-1-2h2v-5z" fill="#F10754"/>
<path transform="translate(1182,615)" d="m0 0 6 1 18 10v3l-6-3-1-2-5-2-9-4v2l-2-1z" fill="#E4084A"/>
<path transform="translate(1473,770)" d="m0 0h5v2l5-1v3h-3l-1 3-1-1h-9l1-4z" fill="#DE0945"/>
<path transform="translate(203,675)" d="m0 0h2l-2 8v4l-2 3h-2v2l-3 1 1-5z" fill="#E20948"/>
<path transform="translate(1858,724)" d="m0 0h1l2 15v19l-1 7h-1l-1-9 1-5z" fill="#F10754"/>
<path transform="translate(1011,676)" d="m0 0 1 3-1 5 1 2-4 3-1 4-4 1 3-9 4-8z" fill="#E20948"/>
<path transform="translate(307,785)" d="m0 0 4 2 5 5-4 3-3-1v-2h-2l-2-5z" fill="#EF0752"/>
<path transform="translate(329,913)" d="m0 0h16l-3 2-15 1h-3l-3 1-6-2v-1z" fill="#F10754"/>
<path transform="translate(199,909)" d="m0 0h5l1 4h-2l1 5-1 3-6-2 2-6-1-2z" fill="#F00753"/>
<path transform="translate(1343,642)" d="m0 0 2 1-1 4-6 4-6 5h-2l2-4 8-8z" fill="#EB074F"/>
<path transform="translate(1683,795)" d="m0 0 4 2 6 4-1 2 3 1v3l2 1h-4l-1-3-1 3-4-4v-4h-2z" fill="#EF0753"/>
<path transform="translate(733,638)" d="m0 0 5 2-4 2-8 6-8 9v-3l7-8z" fill="#E40849"/>
<path transform="translate(1701,806)" d="m0 0 10 2v2h5l-4 2h-3v3h-2l-1-3-5-3z" fill="#E8084D"/>
<path transform="translate(1302,795)" d="m0 0 3 1 4 9 3 3 1 5-3 1-8-17z" fill="#E40849"/>
<path transform="translate(1081,613)" d="m0 0h3l1 8-3 1-3-2 1-1h-4v-2l-2-1z" fill="#E9084D"/>
<path transform="translate(1514,846)" d="m0 0 5 1 1 3-6 5-3-1h-3l4-5h2z" fill="#EE0752"/>
<path transform="translate(788,681)" d="m0 0 1 3 2 1v3l-4 3-7 1 2-4h2l2-5h2z" fill="#EE0752"/>
<path transform="translate(231,835)" d="m0 0 7 2 3 9-5-2-5-5z" fill="#F00753"/>
<path transform="translate(890,623)" d="m0 0 5 1 13 9-1 2-6-4h-3l-4-4v-2z" fill="#E20948"/>
<path transform="translate(316,792)" d="m0 0 5 2 9 4-2 4h3l-1 2-4-1v-2l-3-1-1-3-6-2z" fill="#EC0750"/>
<path transform="translate(1660,627)" d="m0 0h4l-1 3 2 2h-2l-1 2h-3v-2l-6 3 2-5z" fill="#E00946"/>
<path transform="translate(797,606)" d="m0 0h5l-2 1-2 4-3-1 1 3h-2v-2h-5v-3z" fill="#E20948"/>
<path transform="translate(214,663)" d="m0 0h2v4h-2v5h-3v2h-2l-1-4 1-2h2l1-4z" fill="#DD0A44"/>
<path transform="translate(1178,726)" d="m0 0 1 2 4-1 1 4v4l-1 2-4 1z" fill="#DD0A44"/>
<path transform="translate(1632,647)" d="m0 0h2v2l-4 4-1 4-2 4-3-3 2-5z" fill="#E10947"/>
<path transform="translate(1313,679)" d="m0 0 1 2-3 5 2 2h-3l-1 3-4 2 2-6 4-7z" fill="#E30948"/>
<path transform="translate(367,608)" d="m0 0h10l1 3-2 1-10-1z" fill="#EE0752"/>
<path transform="translate(205,892)" d="m0 0 3 1 1 3-2 5v2l-4-2 1-7z" fill="#EF0753"/>
<path transform="translate(446,853)" d="m0 0h4v2l-11 6-3-1 6-5z" fill="#E4084A"/>
<path transform="translate(1168,710)" d="m0 0 7 2 1 3-1 2 2 1-1 2h-3l-5-8z" fill="#E20948"/>
<path transform="translate(1111,605)" d="m0 0h14l-1 2-4 1h-9z" fill="#E10947"/>
<path transform="translate(454,914)" d="m0 0 9 1v3l-1 3h-2v-2h-4v-2l-2-1z" fill="#EF0753"/>
<path transform="translate(409,760)" d="m0 0 2 2 1 5h-2v4h-4l1-6z" fill="#E20948"/>
<path transform="translate(1393,778)" d="m0 0 7 6 4 4-3 2v-2l-4-2-4-6z" fill="#F00753"/>
<path transform="translate(1844,796)" d="m0 0h2l2 3v7l-2 2-2-6-1-5z" fill="#EE0752"/>
<path transform="translate(222,654)" d="m0 0 2 1-2 5h-2v2l-4 1v-5z" fill="#DD0A44"/>
<path transform="translate(1371,624)" d="m0 0 3 1-1 2-6 3-2 2-2-1v-3z" fill="#E40849"/>
<path transform="translate(1689,619)" d="m0 0 6 1-1 3-5 1h-3v-2z" fill="#F10754"/>
<path transform="translate(1455,614)" d="m0 0 9 1v2l-8 2v-2l-4 1v-3z" fill="#E7084C"/>
<path transform="translate(779,613)" d="m0 0h7l-2 4v2h-8l3-3z" fill="#EF0752"/>
<path transform="translate(1776,623)" d="m0 0 6 1 9 5-1 2-6-2-1-2-5-1v-2z" fill="#E30949"/>
<path transform="translate(1380,622)" d="m0 0h5l3 3h-2l1 3-5 1z" fill="#F10754"/>
<path transform="translate(468,918)" d="m0 0 7 1 7 3v2l-9-2v-2h-5z" fill="#E30849"/>
<path transform="translate(1414,696)" d="m0 0 3 1v2h-2l-1 2-8-1 1-2z" fill="#F00753"/>
<path transform="translate(400,702)" d="m0 0 3 2v2l4 1 1 5h-3l-5-8z" fill="#E8084C"/>
<path transform="translate(309,688)" d="m0 0 2 4-6 7v-3l1-2v-3z" fill="#F00753"/>
<path transform="translate(1072,619)" d="m0 0 4 4-2 2-4 2h-3v-2h4l-1-4h2z" fill="#F00753"/>
<path transform="translate(1090,610)" d="m0 0h5v3h-8v2h-3v-3z" fill="#E20948"/>
<path transform="translate(1476,771)" d="m0 0h7v3h-3l-1 3-5-2z" fill="#F10754"/>
<path transform="translate(1349,637)" d="m0 0 3 1v3l-5 2h-3l2-4z" fill="#EF0752"/>
</svg>
