<?xml version="1.0" encoding="UTF-8"?>
<svg version="1.1" xmlns="http://www.w3.org/2000/svg" width="1501" height="1501">
<path d="M0 0 C495.33 0 990.66 0 1501 0 C1501 495.33 1501 990.66 1501 1501 C1005.67 1501 510.34 1501 0 1501 C0 1005.67 0 510.34 0 0 Z " fill="#D8031D" transform="translate(0,0)"/>
<path d="M0 0 C0.80504974 0.00149048 1.61009949 0.00298096 2.43954468 0.0045166 C15.07791166 0.04644165 27.35199259 0.67547252 39.75 3.3125 C40.4311084 3.45171875 41.1122168 3.5909375 41.81396484 3.734375 C86.52977338 13.11850387 126.71413102 38.16591976 154.75 74.3125 C155.16862305 74.84407715 155.58724609 75.3756543 156.01855469 75.92333984 C177.1644291 102.92390965 189.96257707 134.15355331 197.75 167.3125 C198.00523437 168.38032715 198.00523437 168.38032715 198.265625 169.46972656 C203.40793395 191.53510828 203.21974612 214.79427676 202.75 237.3125 C202.73598145 238.09238281 202.72196289 238.87226562 202.70751953 239.67578125 C202.24615755 259.57617863 198.08209068 279.51167063 193.36035156 298.78320312 C192.79244238 301.13661876 192.26155572 303.49485567 191.7421875 305.859375 C188.11899031 321.87218123 182.57626893 337.33591412 177.27246094 352.85107422 C175.87867637 356.9286774 174.50423135 361.01247758 173.1328125 365.09765625 C167.51807843 381.72117268 161.31172214 398.04372075 154.75 414.3125 C155.9359375 414.6940625 157.121875 415.075625 158.34375 415.46875 C165.05616619 417.70971266 171.65170265 420.25946331 178.25 422.8125 C178.92652618 423.07405884 179.60305237 423.33561768 180.30007935 423.60510254 C193.62994467 428.77292738 206.76974786 434.31511145 219.75 440.3125 C220.50764648 440.66231934 221.26529297 441.01213867 222.04589844 441.37255859 C240.33002354 449.92015354 257.06739185 460.64325164 272.75 473.3125 C273.80711676 474.14345173 274.86439638 474.97419633 275.921875 475.8046875 C283.38111611 481.85324311 290.192688 488.54889465 297 495.3125 C297.92321045 496.22636475 298.8464209 497.14022949 299.79760742 498.08178711 C305.87313039 504.18568762 311.40625578 510.56278681 316.75 517.3125 C317.72698237 518.5163415 318.70471097 519.71957827 319.68359375 520.921875 C342.31155541 549.13774578 358.89593737 581.19523546 367.75 616.3125 C367.93288574 617.00085938 368.11577148 617.68921875 368.30419922 618.3984375 C371.62642464 631.82884734 372.0807441 645.67014079 372.01074219 659.43359375 C371.99997661 661.94295218 372.01073941 664.45159984 372.0234375 666.9609375 C372.07001047 718.6569386 349.6223755 764.93401046 313.75 801.3125 C284.53020145 830.22882883 244.99434435 849.46546993 204.99951172 857.83349609 C203.0040923 858.25839439 201.01861794 858.72941534 199.03515625 859.20703125 C181.30333821 863.40721685 163.1334069 863.68702419 145 863.625 C143.9465036 863.62384186 142.8930072 863.62268372 141.80758667 863.62149048 C127.39389314 863.59016915 113.26390935 863.28303801 99.04052734 860.72265625 C96.80886588 860.3230409 94.57551272 859.98213567 92.33203125 859.65625 C51.90919177 853.54058319 15.99649644 835.39878234 -18.52996826 814.35931396 C-20.83363661 812.95729786 -23.14132112 811.56196922 -25.44908142 810.16670227 C-31.2598755 806.65345806 -37.06254109 803.12702743 -42.86106873 799.59358215 C-47.28155663 796.90047325 -51.70632541 794.21448551 -56.1328125 791.53125 C-57.43107345 790.74406334 -58.72933194 789.95687264 -60.02758789 789.16967773 C-61.9049344 788.03139249 -63.78236909 786.89325432 -65.66012573 785.75564575 C-67.37925448 784.71400732 -69.09784288 783.67147723 -70.81640625 782.62890625 C-71.79552979 782.03537354 -72.77465332 781.44184082 -73.78344727 780.83032227 C-75.6289064 779.69469726 -77.44704788 778.51446808 -79.25 777.3125 C-84.22343846 777.39636911 -86.85759011 780.37600436 -90.1875 783.6875 C-96.86087143 790.06816303 -103.88811407 795.75071041 -111.25 801.3125 C-111.96430176 801.85664551 -112.67860352 802.40079102 -113.41455078 802.96142578 C-139.58367183 822.84501915 -167.96584899 839.83895551 -199.25 850.3125 C-200.17425781 850.62654785 -201.09851563 850.9405957 -202.05078125 851.26416016 C-223.80333862 858.60454445 -244.99094711 862.70189095 -267.97949219 862.57324219 C-270.24962032 862.5625018 -272.51895764 862.57323351 -274.7890625 862.5859375 C-324.06840326 862.63438102 -371.86318317 843.47908177 -407.25 809.3125 C-407.97574219 808.62671875 -408.70148438 807.9409375 -409.44921875 807.234375 C-414.87431706 801.99046858 -419.57811774 796.2247341 -424.25 790.3125 C-424.79527344 789.62768555 -425.34054687 788.94287109 -425.90234375 788.23730469 C-432.82023461 779.53695945 -439.59686489 770.90450935 -445.25 761.3125 C-445.99934312 760.07642446 -446.74939904 758.84078088 -447.5 757.60546875 C-466.61062665 725.90489175 -481.77098941 692.18953029 -487.25 655.3125 C-487.44980469 654.03761719 -487.64960938 652.76273438 -487.85546875 651.44921875 C-489.08271623 642.71084759 -489.71955728 633.92164027 -490.375 625.125 C-490.46281738 623.960896 -490.55063477 622.79679199 -490.64111328 621.59741211 C-491.18528365 613.82347113 -491.35164333 606.10434824 -491.25 598.3125 C-489.60416667 598.14583333 -487.95833333 597.97916667 -486.3125 597.8125 C-485.39597656 597.7196875 -484.47945313 597.626875 -483.53515625 597.53125 C-479.43467607 597.2582097 -475.35770366 597.27137155 -471.25 597.3125 C-471.18006836 598.00585449 -471.11013672 598.69920898 -471.03808594 599.41357422 C-467.57983088 633.04538261 -461.01758403 668.14096249 -433.21875 690.78125 C-417.21851319 702.43190787 -400.62539823 706.90104375 -381 706.6875 C-380.31857941 706.68218262 -379.63715881 706.67686523 -378.93508911 706.67138672 C-345.34690538 706.3646498 -315.25442731 692.87668311 -288.25 673.3125 C-287.19683594 672.55195312 -286.14367187 671.79140625 -285.05859375 671.0078125 C-275.58869412 664.0172608 -266.51895204 656.58989573 -257.83203125 648.6484375 C-256.40903083 647.36106344 -254.97949344 646.08039137 -253.52319336 644.83081055 C-247.81821755 639.93070392 -242.49179408 634.70327733 -237.1875 629.375 C-236.32833984 628.51970703 -235.46917969 627.66441406 -234.58398438 626.78320312 C-229.59614854 621.78774645 -224.84563962 616.66840032 -220.25 611.3125 C-218.79554483 609.70481627 -217.33779105 608.10010285 -215.875 606.5 C-212.03071755 602.23504692 -208.35473095 597.8638915 -204.74609375 593.3984375 C-202.93801844 591.16310183 -201.11887237 588.94061795 -199.28515625 586.7265625 C-191.64687969 577.47132155 -184.40987907 567.96717988 -177.37524414 558.24609375 C-175.71367587 555.95253782 -174.04511158 553.66461258 -172.37280273 551.37890625 C-164.40352353 540.45510333 -156.78104197 529.33335983 -149.3125 518.0625 C-148.46218704 516.78208328 -148.46218704 516.78208328 -147.59469604 515.47579956 C-132.50376774 492.74915574 -118.16315992 469.68937524 -104.34301758 446.17108154 C-102.71635171 443.40507739 -101.08408479 440.6423801 -99.453125 437.87890625 C-91.46808065 424.30888865 -83.78305414 410.58232686 -76.17626953 396.79736328 C-74.195623 393.21412518 -72.20691712 389.63548561 -70.21484375 386.05859375 C-69.71459435 385.16000893 -69.71459435 385.16000893 -69.20423889 384.24327087 C-67.61538383 381.38928769 -66.02600514 378.53559939 -64.43579102 375.68237305 C-60.30771658 368.26037076 -56.25916591 360.79922129 -52.25 353.3125 C-52.9522168 353.19495361 -53.65443359 353.07740723 -54.37792969 352.95629883 C-59.98429021 351.69958575 -65.20968111 349.20506125 -70.5 347 C-71.13949585 346.7343927 -71.7789917 346.4687854 -72.43786621 346.19512939 C-103.5525115 333.23762542 -133.2145394 318.18918588 -158.25 295.3125 C-159.15492188 294.49136719 -160.05984375 293.67023438 -160.9921875 292.82421875 C-187.4483506 267.64553393 -199.52288268 230.10865456 -200.59375 194.38671875 C-201.08500477 172.89688539 -199.95532856 153.90551806 -193.25 133.3125 C-192.82557617 131.96623535 -192.82557617 131.96623535 -192.39257812 130.59277344 C-190.61212573 125.04433726 -188.55241922 119.66409954 -186.25 114.3125 C-185.71101074 113.05348877 -185.71101074 113.05348877 -185.16113281 111.76904297 C-177.57370213 94.3487904 -167.84067282 78.58480378 -155.25 64.3125 C-154.81300781 63.81524414 -154.37601563 63.31798828 -153.92578125 62.80566406 C-148.40076534 56.54939605 -142.79982658 50.51573394 -136.25 45.3125 C-135.734375 44.89564941 -135.21875 44.47879883 -134.6875 44.04931641 C-105.87726439 20.92234993 -71.70243145 7.44892546 -35.25 2.3125 C-33.99445313 2.13517334 -32.73890625 1.95784668 -31.4453125 1.77514648 C-20.94500662 0.37421838 -10.58600346 -0.04887009 0 0 Z " fill="#FEFEFE" transform="translate(783.25,281.6875)"/>
<path d="M0 0 C14.90558783 1.54780642 29.07908022 14.87299127 38.515625 25.90625 C61.87804072 54.99906958 70.12208192 95.75252061 70.25 132.1875 C70.25517639 132.857742 70.26035278 133.52798401 70.26568604 134.21853638 C70.32527615 144.0139239 69.50987508 153.33266478 68 163 C67.81945068 164.24342163 67.81945068 164.24342163 67.63525391 165.51196289 C66.0807722 176.05291065 63.48691629 185.94975097 60 196 C59.75266113 196.72912598 59.50532227 197.45825195 59.25048828 198.20947266 C46.87804544 234.45692446 26.4941014 267.37987889 0 295 C-0.58378418 295.61633301 -1.16756836 296.23266602 -1.76904297 296.86767578 C-24.0805758 320.32457639 -50.42863627 337.39643622 -81 348 C-81.68054443 348.24967529 -82.36108887 348.49935059 -83.06225586 348.7565918 C-102.92363213 355.81450947 -125.76110452 357.03196021 -146.5 353.8125 C-147.15669678 353.71187256 -147.81339355 353.61124512 -148.48999023 353.50756836 C-160.84636748 351.24058095 -172.18778132 345.71255104 -183.28857422 340.06152344 C-185.38961003 338.99256677 -187.49691323 337.93684649 -189.60546875 336.8828125 C-196.26151865 333.5368839 -202.77820232 330.11571113 -209 326 C-207.72494758 323.19571434 -206.42022876 321.18395629 -204.20703125 319.046875 C-203.66272461 318.51425049 -203.11841797 317.98162598 -202.55761719 317.43286133 C-201.69378418 316.59984497 -201.69378418 316.59984497 -200.8125 315.75 C-196.59364827 311.60891247 -192.4938278 307.454248 -188.6640625 302.9453125 C-186.69860986 300.64767068 -184.66270129 298.42126877 -182.625 296.1875 C-178.80402862 291.94911157 -175.15752669 287.60120897 -171.5703125 283.1640625 C-169.64819539 280.7871519 -167.70034731 278.43324057 -165.7421875 276.0859375 C-158.39371628 267.26388342 -151.32049944 258.30076675 -144.51855469 249.05126953 C-142.99964648 246.99952246 -141.45955046 244.96537332 -139.9140625 242.93359375 C-129.12116577 228.64562171 -119.33534556 213.68267589 -109.47583008 198.74487305 C-107.22073418 195.32990131 -104.95020603 191.92556554 -102.67578125 188.5234375 C-71.84910517 142.31068295 -45.89902081 92.75522831 -20.99905396 43.17333984 C-20.14260513 41.46845328 -19.28497118 39.76416141 -18.42599487 38.06054688 C-13.29764009 27.88064286 -8.39372912 17.63503165 -3.79484558 7.20375061 C-3.44207047 6.40553391 -3.08929535 5.6073172 -2.72583008 4.78491211 C-2.41567459 4.07676865 -2.1055191 3.36862518 -1.78596497 2.63902283 C-1 1 -1 1 0 0 Z " fill="#D8031D" transform="translate(929,715)"/>
<path d="M0 0 C1.23459961 -0.00999023 2.46919922 -0.01998047 3.74121094 -0.03027344 C15.24820913 0.0772686 26.24791415 2.20190062 37.0625 6.125 C38.12162598 6.50736816 38.12162598 6.50736816 39.20214844 6.89746094 C67.55086066 17.50446681 90.10590721 39.09522937 102.875 66.43359375 C113.85568182 91.00346351 116.47781015 118.57437509 108.625 144.4375 C108.31151611 145.50339355 108.31151611 145.50339355 107.99169922 146.59082031 C103.41038418 161.82069008 96.17122719 175.48378761 85.625 187.4375 C84.50351562 188.77361328 84.50351562 188.77361328 83.359375 190.13671875 C69.80750559 205.80879999 52.30429117 216.31344014 32.625 222.4375 C31.73167969 222.73269531 30.83835937 223.02789063 29.91796875 223.33203125 C2.39018252 232.13225268 -27.51816152 228.15279803 -53.19824219 215.57617188 C-63.34599838 210.26783463 -72.1781518 203.40744583 -80.375 195.4375 C-81.49261719 194.41269531 -81.49261719 194.41269531 -82.6328125 193.3671875 C-101.3604927 175.68355916 -113.12514127 149.47072385 -114.58007812 123.82226562 C-114.67750508 120.06635699 -114.70475425 116.31961366 -114.6875 112.5625 C-114.68468018 111.90219788 -114.68186035 111.24189575 -114.67895508 110.56158447 C-114.48989226 81.07402778 -103.04631799 56.04568622 -83.375 34.4375 C-82.52035156 33.45910156 -82.52035156 33.45910156 -81.6484375 32.4609375 C-71.68332053 21.67816991 -58.58051033 14.43482454 -45.375 8.4375 C-44.54097656 8.02886719 -43.70695312 7.62023437 -42.84765625 7.19921875 C-29.43277171 1.09297078 -14.51848695 0.06829692 0 0 Z " fill="#FEFEFE" transform="translate(456.375,618.5625)"/>
<path d="M0 0 C0.78181641 -0.020625 1.56363281 -0.04125 2.36914062 -0.0625 C10.41320224 -0.11626148 17.3141333 2.64360451 23.1875 8.25 C31.12145829 18.69280456 32.61816674 32.56845891 31.1875 45.25 C27.30538675 70.62708762 20.89393888 95.97601921 12.82226562 120.32177734 C11.9284636 123.03687289 11.08661956 125.76680644 10.25 128.5 C9.94191406 129.50160156 9.63382813 130.50320313 9.31640625 131.53515625 C8.37780036 134.62378669 7.45052679 137.71533778 6.52734375 140.80859375 C6.22497803 141.81567383 5.9226123 142.82275391 5.61108398 143.86035156 C5.01172719 145.85725694 4.41597021 147.85524765 3.82446289 149.85449219 C2.16895462 155.35805349 0.30462859 160.68380329 -1.92016602 165.98413086 C-2.84637119 168.33600781 -3.56759814 170.69218974 -4.25 173.125 C-5.62698937 177.89264061 -7.47898305 182.36180715 -9.42578125 186.921875 C-12.50613396 194.3147215 -15.26498628 201.84627267 -17.91992188 209.40136719 C-20.81436157 217.62514253 -23.95204709 225.70609896 -27.3125 233.75 C-27.56849976 234.36427856 -27.82449951 234.97855713 -28.08825684 235.6114502 C-29.71604135 239.51608988 -31.35327786 243.41666846 -32.99682617 247.31469727 C-33.79172126 249.20069948 -34.58441145 251.08761725 -35.37695312 252.97460938 C-42.33596678 269.48797047 -49.78377918 285.6993595 -57.69628906 301.77832031 C-58.02987427 302.45677505 -58.36345947 303.1352298 -58.70715332 303.83424377 C-59.61435122 305.6761752 -60.52531079 307.51625255 -61.43652344 309.35620117 C-62.86994347 312.21933787 -62.86994347 312.21933787 -63.8125 315.25 C-81.07380626 310.32560332 -94.28038122 294.16220362 -103.01904297 279.18164062 C-107.38145652 271.20487065 -111.10033499 262.93698397 -113.8125 254.25 C-114.1425 253.23808594 -114.4725 252.22617187 -114.8125 251.18359375 C-121.11233431 228.72948633 -120.23801179 202.73133747 -117.15087891 179.80566406 C-116.89076601 177.84111735 -116.65236542 175.87368645 -116.42333984 173.90527344 C-115.30075701 164.6665735 -113.49604251 155.76868597 -111.1875 146.75 C-110.92422913 145.71185654 -110.92422913 145.71185654 -110.65563965 144.65274048 C-98.07297838 95.27971761 -74.27237041 36.32465935 -28.81884766 8.39990234 C-19.55614254 3.09114826 -10.65523789 0.06924606 0 0 Z " fill="#D8031D" transform="translate(805.8125,303.75)"/>
</svg>
